<mxfile host="65bd71144e">
    <diagram id="C5RBs43oDa-KdzZeNtuy" name="op1">
        <mxGraphModel dx="1116" dy="828" grid="1" gridSize="20" guides="1" tooltips="1" connect="1" arrows="1" fold="1" page="1" pageScale="1" pageWidth="1169" pageHeight="827" background="#F4F1DE" math="0" shadow="0">
            <root>
                <mxCell id="WIyWlLk6GJQsqaUBKTNV-0"/>
                <mxCell id="WIyWlLk6GJQsqaUBKTNV-1" parent="WIyWlLk6GJQsqaUBKTNV-0"/>
                <mxCell id="zkfFHV4jXpPFQw0GAbJ--0" value="&lt;&lt;interface&gt;&gt;&#10;Subject" style="swimlane;fontStyle=0;align=center;verticalAlign=top;childLayout=stackLayout;horizontal=1;startSize=36;horizontalStack=0;resizeParent=1;resizeLast=0;collapsible=1;marginBottom=0;shadow=0;strokeWidth=1;fillColor=#F2CC8F;strokeColor=#E07A5F;fontColor=#393C56;" parent="WIyWlLk6GJQsqaUBKTNV-1" vertex="1">
                    <mxGeometry x="190" y="124" width="160" height="114" as="geometry">
                        <mxRectangle x="230" y="140" width="160" height="26" as="alternateBounds"/>
                    </mxGeometry>
                </mxCell>
                <mxCell id="zkfFHV4jXpPFQw0GAbJ--1" value="registerObserver()" style="text;align=left;verticalAlign=top;spacingLeft=4;spacingRight=4;overflow=hidden;rotatable=0;points=[[0,0.5],[1,0.5]];portConstraint=eastwest;fontColor=#393C56;" parent="zkfFHV4jXpPFQw0GAbJ--0" vertex="1">
                    <mxGeometry y="36" width="160" height="26" as="geometry"/>
                </mxCell>
                <mxCell id="zkfFHV4jXpPFQw0GAbJ--2" value="removeObserver()" style="text;align=left;verticalAlign=top;spacingLeft=4;spacingRight=4;overflow=hidden;rotatable=0;points=[[0,0.5],[1,0.5]];portConstraint=eastwest;shadow=0;html=0;fontColor=#393C56;" parent="zkfFHV4jXpPFQw0GAbJ--0" vertex="1">
                    <mxGeometry y="62" width="160" height="26" as="geometry"/>
                </mxCell>
                <mxCell id="zkfFHV4jXpPFQw0GAbJ--3" value="notifyObserver()" style="text;align=left;verticalAlign=top;spacingLeft=4;spacingRight=4;overflow=hidden;rotatable=0;points=[[0,0.5],[1,0.5]];portConstraint=eastwest;shadow=0;html=0;fontColor=#393C56;" parent="zkfFHV4jXpPFQw0GAbJ--0" vertex="1">
                    <mxGeometry y="88" width="160" height="26" as="geometry"/>
                </mxCell>
                <mxCell id="zkfFHV4jXpPFQw0GAbJ--6" value="Lecture" style="swimlane;fontStyle=0;align=center;verticalAlign=top;childLayout=stackLayout;horizontal=1;startSize=26;horizontalStack=0;resizeParent=1;resizeLast=0;collapsible=1;marginBottom=0;shadow=0;strokeWidth=1;fillColor=#F2CC8F;strokeColor=#E07A5F;fontColor=#393C56;" parent="WIyWlLk6GJQsqaUBKTNV-1" vertex="1">
                    <mxGeometry x="190" y="364" width="160" height="176" as="geometry">
                        <mxRectangle x="120" y="360" width="160" height="26" as="alternateBounds"/>
                    </mxGeometry>
                </mxCell>
                <mxCell id="6" value="registerObserver()" style="text;align=left;verticalAlign=top;spacingLeft=4;spacingRight=4;overflow=hidden;rotatable=0;points=[[0,0.5],[1,0.5]];portConstraint=eastwest;fontColor=#393C56;" parent="zkfFHV4jXpPFQw0GAbJ--6" vertex="1">
                    <mxGeometry y="26" width="160" height="26" as="geometry"/>
                </mxCell>
                <mxCell id="8" value="notifyObserver()" style="text;align=left;verticalAlign=top;spacingLeft=4;spacingRight=4;overflow=hidden;rotatable=0;points=[[0,0.5],[1,0.5]];portConstraint=eastwest;shadow=0;html=0;fontColor=#393C56;" parent="zkfFHV4jXpPFQw0GAbJ--6" vertex="1">
                    <mxGeometry y="52" width="160" height="26" as="geometry"/>
                </mxCell>
                <mxCell id="7" value="removeObserver()" style="text;align=left;verticalAlign=top;spacingLeft=4;spacingRight=4;overflow=hidden;rotatable=0;points=[[0,0.5],[1,0.5]];portConstraint=eastwest;shadow=0;html=0;fontColor=#393C56;" parent="zkfFHV4jXpPFQw0GAbJ--6" vertex="1">
                    <mxGeometry y="78" width="160" height="26" as="geometry"/>
                </mxCell>
                <mxCell id="9" value="" style="line;html=1;strokeWidth=1;align=left;verticalAlign=middle;spacingTop=-1;spacingLeft=3;spacingRight=3;rotatable=0;labelPosition=right;points=[];portConstraint=eastwest;labelBackgroundColor=#F4F1DE;fillColor=#F2CC8F;strokeColor=#E07A5F;fontColor=#393C56;" parent="zkfFHV4jXpPFQw0GAbJ--6" vertex="1">
                    <mxGeometry y="104" width="160" height="8" as="geometry"/>
                </mxCell>
                <mxCell id="zkfFHV4jXpPFQw0GAbJ--8" value="postAdded()" style="text;align=left;verticalAlign=top;spacingLeft=4;spacingRight=4;overflow=hidden;rotatable=0;points=[[0,0.5],[1,0.5]];portConstraint=eastwest;shadow=0;html=0;fontColor=#393C56;" parent="zkfFHV4jXpPFQw0GAbJ--6" vertex="1">
                    <mxGeometry y="112" width="160" height="28" as="geometry"/>
                </mxCell>
                <mxCell id="zkfFHV4jXpPFQw0GAbJ--7" value="addNewPost()" style="text;align=left;verticalAlign=top;spacingLeft=4;spacingRight=4;overflow=hidden;rotatable=0;points=[[0,0.5],[1,0.5]];portConstraint=eastwest;fontColor=#393C56;" parent="zkfFHV4jXpPFQw0GAbJ--6" vertex="1">
                    <mxGeometry y="140" width="160" height="26" as="geometry"/>
                </mxCell>
                <mxCell id="zkfFHV4jXpPFQw0GAbJ--12" value="" style="endArrow=block;endSize=10;endFill=0;shadow=0;strokeWidth=1;edgeStyle=elbowEdgeStyle;elbow=vertical;dashed=1;labelBackgroundColor=#F4F1DE;strokeColor=#E07A5F;fontColor=#393C56;" parent="WIyWlLk6GJQsqaUBKTNV-1" source="zkfFHV4jXpPFQw0GAbJ--6" target="zkfFHV4jXpPFQw0GAbJ--0" edge="1">
                    <mxGeometry width="160" relative="1" as="geometry">
                        <mxPoint x="170" y="207" as="sourcePoint"/>
                        <mxPoint x="170" y="207" as="targetPoint"/>
                    </mxGeometry>
                </mxCell>
                <mxCell id="zkfFHV4jXpPFQw0GAbJ--17" value="&lt;&lt;interface&gt;&gt;&#10;Observer" style="swimlane;fontStyle=0;align=center;verticalAlign=top;childLayout=stackLayout;horizontal=1;startSize=36;horizontalStack=0;resizeParent=1;resizeLast=0;collapsible=1;marginBottom=0;shadow=0;strokeWidth=1;fillColor=#F2CC8F;strokeColor=#E07A5F;fontColor=#393C56;" parent="WIyWlLk6GJQsqaUBKTNV-1" vertex="1">
                    <mxGeometry x="640" y="124" width="160" height="62" as="geometry">
                        <mxRectangle x="550" y="140" width="160" height="26" as="alternateBounds"/>
                    </mxGeometry>
                </mxCell>
                <mxCell id="zkfFHV4jXpPFQw0GAbJ--18" value="update()" style="text;align=left;verticalAlign=top;spacingLeft=4;spacingRight=4;overflow=hidden;rotatable=0;points=[[0,0.5],[1,0.5]];portConstraint=eastwest;fontColor=#393C56;" parent="zkfFHV4jXpPFQw0GAbJ--17" vertex="1">
                    <mxGeometry y="36" width="160" height="26" as="geometry"/>
                </mxCell>
                <mxCell id="zkfFHV4jXpPFQw0GAbJ--26" value="" style="endArrow=open;shadow=0;strokeWidth=1;endFill=1;edgeStyle=elbowEdgeStyle;elbow=vertical;exitX=1.006;exitY=0.106;exitDx=0;exitDy=0;exitPerimeter=0;labelBackgroundColor=#F4F1DE;strokeColor=#E07A5F;fontColor=#393C56;" parent="WIyWlLk6GJQsqaUBKTNV-1" source="zkfFHV4jXpPFQw0GAbJ--0" target="zkfFHV4jXpPFQw0GAbJ--17" edge="1">
                    <mxGeometry x="0.5" y="41" relative="1" as="geometry">
                        <mxPoint x="231" y="144" as="sourcePoint"/>
                        <mxPoint x="390" y="196" as="targetPoint"/>
                        <mxPoint x="-40" y="32" as="offset"/>
                    </mxGeometry>
                </mxCell>
                <mxCell id="zkfFHV4jXpPFQw0GAbJ--28" value="observers" style="resizable=0;align=right;verticalAlign=bottom;labelBackgroundColor=none;fontSize=12;fillColor=#F2CC8F;strokeColor=#E07A5F;fontColor=#393C56;" parent="zkfFHV4jXpPFQw0GAbJ--26" connectable="0" vertex="1">
                    <mxGeometry x="1" relative="1" as="geometry">
                        <mxPoint x="-10" as="offset"/>
                    </mxGeometry>
                </mxCell>
                <mxCell id="12" value="&lt;&lt;abstract&gt;&gt;&#10;Student" style="swimlane;fontStyle=0;align=center;verticalAlign=top;childLayout=stackLayout;horizontal=1;startSize=36;horizontalStack=0;resizeParent=1;resizeLast=0;collapsible=1;marginBottom=0;shadow=0;strokeWidth=1;fillColor=#F2CC8F;strokeColor=#E07A5F;fontColor=#393C56;" parent="WIyWlLk6GJQsqaUBKTNV-1" vertex="1">
                    <mxGeometry x="640" y="364" width="160" height="88" as="geometry">
                        <mxRectangle x="550" y="140" width="160" height="26" as="alternateBounds"/>
                    </mxGeometry>
                </mxCell>
                <mxCell id="13" value="dropLecture()" style="text;align=left;verticalAlign=top;spacingLeft=4;spacingRight=4;overflow=hidden;rotatable=0;points=[[0,0.5],[1,0.5]];portConstraint=eastwest;fontColor=#393C56;" parent="12" vertex="1">
                    <mxGeometry y="36" width="160" height="26" as="geometry"/>
                </mxCell>
                <mxCell id="19" value="readPost()" style="text;align=left;verticalAlign=top;spacingLeft=4;spacingRight=4;overflow=hidden;rotatable=0;points=[[0,0.5],[1,0.5]];portConstraint=eastwest;fontColor=#393C56;" parent="12" vertex="1">
                    <mxGeometry y="62" width="160" height="26" as="geometry"/>
                </mxCell>
                <mxCell id="18" value="" style="endArrow=classic;html=1;exitX=0.5;exitY=0;exitDx=0;exitDy=0;dashed=1;labelBackgroundColor=#F4F1DE;strokeColor=#E07A5F;fontColor=#393C56;" parent="WIyWlLk6GJQsqaUBKTNV-1" source="12" target="zkfFHV4jXpPFQw0GAbJ--18" edge="1">
                    <mxGeometry width="50" height="50" relative="1" as="geometry">
                        <mxPoint x="510" y="434" as="sourcePoint"/>
                        <mxPoint x="550" y="384" as="targetPoint"/>
                    </mxGeometry>
                </mxCell>
                <mxCell id="20" value="StudentBob" style="swimlane;fontStyle=0;align=center;verticalAlign=top;childLayout=stackLayout;horizontal=1;startSize=26;horizontalStack=0;resizeParent=1;resizeLast=0;collapsible=1;marginBottom=0;shadow=0;strokeWidth=1;fillColor=#F2CC8F;strokeColor=#E07A5F;fontColor=#393C56;" parent="WIyWlLk6GJQsqaUBKTNV-1" vertex="1">
                    <mxGeometry x="640" y="594" width="160" height="118" as="geometry">
                        <mxRectangle x="550" y="140" width="160" height="26" as="alternateBounds"/>
                    </mxGeometry>
                </mxCell>
                <mxCell id="21" value="update()" style="text;align=left;verticalAlign=top;spacingLeft=4;spacingRight=4;overflow=hidden;rotatable=0;points=[[0,0.5],[1,0.5]];portConstraint=eastwest;fontColor=#393C56;" parent="20" vertex="1">
                    <mxGeometry y="26" width="160" height="26" as="geometry"/>
                </mxCell>
                <mxCell id="ek2UGgpGjRStzFi7qlnH-37" value="" style="line;html=1;strokeWidth=1;align=left;verticalAlign=middle;spacingTop=-1;spacingLeft=3;spacingRight=3;rotatable=0;labelPosition=right;points=[];portConstraint=eastwest;labelBackgroundColor=#F4F1DE;fillColor=#F2CC8F;strokeColor=#E07A5F;fontColor=#393C56;" parent="20" vertex="1">
                    <mxGeometry y="52" width="160" height="8" as="geometry"/>
                </mxCell>
                <mxCell id="22" value="readPost() {&#10;    // 제목만 읽음&#10;}" style="text;align=left;verticalAlign=top;spacingLeft=4;spacingRight=4;overflow=hidden;rotatable=0;points=[[0,0.5],[1,0.5]];portConstraint=eastwest;fontColor=#393C56;" parent="20" vertex="1">
                    <mxGeometry y="60" width="160" height="58" as="geometry"/>
                </mxCell>
                <mxCell id="23" value="StudentAlice" style="swimlane;fontStyle=0;align=center;verticalAlign=top;childLayout=stackLayout;horizontal=1;startSize=26;horizontalStack=0;resizeParent=1;resizeLast=0;collapsible=1;marginBottom=0;shadow=0;strokeWidth=1;fillColor=#F2CC8F;strokeColor=#E07A5F;fontColor=#393C56;" parent="WIyWlLk6GJQsqaUBKTNV-1" vertex="1">
                    <mxGeometry x="460" y="594" width="160" height="118" as="geometry">
                        <mxRectangle x="550" y="140" width="160" height="26" as="alternateBounds"/>
                    </mxGeometry>
                </mxCell>
                <mxCell id="24" value="update()" style="text;align=left;verticalAlign=top;spacingLeft=4;spacingRight=4;overflow=hidden;rotatable=0;points=[[0,0.5],[1,0.5]];portConstraint=eastwest;fontColor=#393C56;" parent="23" vertex="1">
                    <mxGeometry y="26" width="160" height="26" as="geometry"/>
                </mxCell>
                <mxCell id="ek2UGgpGjRStzFi7qlnH-36" value="" style="line;html=1;strokeWidth=1;align=left;verticalAlign=middle;spacingTop=-1;spacingLeft=3;spacingRight=3;rotatable=0;labelPosition=right;points=[];portConstraint=eastwest;labelBackgroundColor=#F4F1DE;fillColor=#F2CC8F;strokeColor=#E07A5F;fontColor=#393C56;" parent="23" vertex="1">
                    <mxGeometry y="52" width="160" height="8" as="geometry"/>
                </mxCell>
                <mxCell id="25" value="readPost() {&#10;    // 제목 및 내용 모두 읽음&#10;}" style="text;align=left;verticalAlign=top;spacingLeft=4;spacingRight=4;overflow=hidden;rotatable=0;points=[[0,0.5],[1,0.5]];portConstraint=eastwest;fontColor=#393C56;" parent="23" vertex="1">
                    <mxGeometry y="60" width="160" height="58" as="geometry"/>
                </mxCell>
                <mxCell id="26" value="StudentMallory" style="swimlane;fontStyle=0;align=center;verticalAlign=top;childLayout=stackLayout;horizontal=1;startSize=26;horizontalStack=0;resizeParent=1;resizeLast=0;collapsible=1;marginBottom=0;shadow=0;strokeWidth=1;fillColor=#F2CC8F;strokeColor=#E07A5F;fontColor=#393C56;" parent="WIyWlLk6GJQsqaUBKTNV-1" vertex="1">
                    <mxGeometry x="820" y="594" width="160" height="118" as="geometry">
                        <mxRectangle x="550" y="140" width="160" height="26" as="alternateBounds"/>
                    </mxGeometry>
                </mxCell>
                <mxCell id="27" value="update()" style="text;align=left;verticalAlign=top;spacingLeft=4;spacingRight=4;overflow=hidden;rotatable=0;points=[[0,0.5],[1,0.5]];portConstraint=eastwest;fontColor=#393C56;" parent="26" vertex="1">
                    <mxGeometry y="26" width="160" height="26" as="geometry"/>
                </mxCell>
                <mxCell id="ek2UGgpGjRStzFi7qlnH-38" value="" style="line;html=1;strokeWidth=1;align=left;verticalAlign=middle;spacingTop=-1;spacingLeft=3;spacingRight=3;rotatable=0;labelPosition=right;points=[];portConstraint=eastwest;labelBackgroundColor=#F4F1DE;fillColor=#F2CC8F;strokeColor=#E07A5F;fontColor=#393C56;" parent="26" vertex="1">
                    <mxGeometry y="52" width="160" height="8" as="geometry"/>
                </mxCell>
                <mxCell id="28" value="readPost() {&#10;    // 읽는 척만 하고 안읽음&#10;}" style="text;align=left;verticalAlign=top;spacingLeft=4;spacingRight=4;overflow=hidden;rotatable=0;points=[[0,0.5],[1,0.5]];portConstraint=eastwest;fontColor=#393C56;" parent="26" vertex="1">
                    <mxGeometry y="60" width="160" height="58" as="geometry"/>
                </mxCell>
                <mxCell id="29" value="" style="endArrow=classic;html=1;exitX=0.55;exitY=-0.038;exitDx=0;exitDy=0;dashed=1;entryX=0.288;entryY=1.115;entryDx=0;entryDy=0;entryPerimeter=0;exitPerimeter=0;labelBackgroundColor=#F4F1DE;strokeColor=#E07A5F;fontColor=#393C56;" parent="WIyWlLk6GJQsqaUBKTNV-1" source="23" target="19" edge="1">
                    <mxGeometry width="50" height="50" relative="1" as="geometry">
                        <mxPoint x="730" y="238" as="sourcePoint"/>
                        <mxPoint x="730" y="186" as="targetPoint"/>
                    </mxGeometry>
                </mxCell>
                <mxCell id="30" value="" style="endArrow=classic;html=1;exitX=0.5;exitY=0;exitDx=0;exitDy=0;dashed=1;entryX=0.506;entryY=1;entryDx=0;entryDy=0;entryPerimeter=0;labelBackgroundColor=#F4F1DE;strokeColor=#E07A5F;fontColor=#393C56;" parent="WIyWlLk6GJQsqaUBKTNV-1" source="20" target="19" edge="1">
                    <mxGeometry width="50" height="50" relative="1" as="geometry">
                        <mxPoint x="558" y="401.03600000000006" as="sourcePoint"/>
                        <mxPoint x="710" y="354" as="targetPoint"/>
                    </mxGeometry>
                </mxCell>
                <mxCell id="31" value="" style="endArrow=classic;html=1;exitX=0.5;exitY=0;exitDx=0;exitDy=0;dashed=1;entryX=0.688;entryY=1.077;entryDx=0;entryDy=0;entryPerimeter=0;labelBackgroundColor=#F4F1DE;strokeColor=#E07A5F;fontColor=#393C56;" parent="WIyWlLk6GJQsqaUBKTNV-1" source="26" target="19" edge="1">
                    <mxGeometry width="50" height="50" relative="1" as="geometry">
                        <mxPoint x="730" y="393.99600000000004" as="sourcePoint"/>
                        <mxPoint x="868.0799999999999" y="311.95" as="targetPoint"/>
                    </mxGeometry>
                </mxCell>
                <mxCell id="36" value="lecture" style="endArrow=classic;html=1;exitX=0;exitY=0.25;exitDx=0;exitDy=0;entryX=1.011;entryY=0.132;entryDx=0;entryDy=0;entryPerimeter=0;labelBackgroundColor=#F4F1DE;strokeColor=#E07A5F;fontColor=#393C56;" parent="WIyWlLk6GJQsqaUBKTNV-1" source="12" target="zkfFHV4jXpPFQw0GAbJ--6" edge="1">
                    <mxGeometry x="0.8122" y="-8" width="50" height="50" relative="1" as="geometry">
                        <mxPoint x="515" y="414" as="sourcePoint"/>
                        <mxPoint x="400" y="384" as="targetPoint"/>
                        <mxPoint as="offset"/>
                    </mxGeometry>
                </mxCell>
            </root>
        </mxGraphModel>
    </diagram>
    <diagram id="BtEI4iAultIYuXnvLnr5" name="op2">
        <mxGraphModel dx="1116" dy="828" grid="1" gridSize="20" guides="1" tooltips="1" connect="1" arrows="1" fold="1" page="1" pageScale="1" pageWidth="1169" pageHeight="827" background="#F4F1DE" math="0" shadow="0">
            <root>
                <mxCell id="YBCZdcRhZ_f7jCjPwHEH-0"/>
                <mxCell id="YBCZdcRhZ_f7jCjPwHEH-1" parent="YBCZdcRhZ_f7jCjPwHEH-0"/>
                <mxCell id="bU1tPg2YoFCti1Te3YLf-0" value="&lt;&lt;interface&gt;&gt;&#10;Subject" style="swimlane;fontStyle=0;align=center;verticalAlign=top;childLayout=stackLayout;horizontal=1;startSize=36;horizontalStack=0;resizeParent=1;resizeLast=0;collapsible=1;marginBottom=0;rounded=0;shadow=0;strokeWidth=1;fillColor=#F2CC8F;strokeColor=#E07A5F;fontColor=#393C56;" parent="YBCZdcRhZ_f7jCjPwHEH-1" vertex="1">
                    <mxGeometry x="280" y="224" width="160" height="114" as="geometry">
                        <mxRectangle x="230" y="140" width="160" height="26" as="alternateBounds"/>
                    </mxGeometry>
                </mxCell>
                <mxCell id="bU1tPg2YoFCti1Te3YLf-1" value="registerObserver()" style="text;align=left;verticalAlign=top;spacingLeft=4;spacingRight=4;overflow=hidden;rotatable=0;points=[[0,0.5],[1,0.5]];portConstraint=eastwest;fontColor=#393C56;" parent="bU1tPg2YoFCti1Te3YLf-0" vertex="1">
                    <mxGeometry y="36" width="160" height="26" as="geometry"/>
                </mxCell>
                <mxCell id="bU1tPg2YoFCti1Te3YLf-2" value="removeObserver()" style="text;align=left;verticalAlign=top;spacingLeft=4;spacingRight=4;overflow=hidden;rotatable=0;points=[[0,0.5],[1,0.5]];portConstraint=eastwest;rounded=0;shadow=0;html=0;fontColor=#393C56;" parent="bU1tPg2YoFCti1Te3YLf-0" vertex="1">
                    <mxGeometry y="62" width="160" height="26" as="geometry"/>
                </mxCell>
                <mxCell id="bU1tPg2YoFCti1Te3YLf-3" value="notifyObserver()" style="text;align=left;verticalAlign=top;spacingLeft=4;spacingRight=4;overflow=hidden;rotatable=0;points=[[0,0.5],[1,0.5]];portConstraint=eastwest;rounded=0;shadow=0;html=0;fontColor=#393C56;" parent="bU1tPg2YoFCti1Te3YLf-0" vertex="1">
                    <mxGeometry y="88" width="160" height="26" as="geometry"/>
                </mxCell>
                <mxCell id="bU1tPg2YoFCti1Te3YLf-4" value="Store" style="swimlane;fontStyle=0;align=center;verticalAlign=top;childLayout=stackLayout;horizontal=1;startSize=26;horizontalStack=0;resizeParent=1;resizeLast=0;collapsible=1;marginBottom=0;rounded=0;shadow=0;strokeWidth=1;fillColor=#F2CC8F;strokeColor=#E07A5F;fontColor=#393C56;" parent="YBCZdcRhZ_f7jCjPwHEH-1" vertex="1">
                    <mxGeometry x="280" y="464" width="160" height="140" as="geometry">
                        <mxRectangle x="120" y="360" width="160" height="26" as="alternateBounds"/>
                    </mxGeometry>
                </mxCell>
                <mxCell id="bU1tPg2YoFCti1Te3YLf-5" value="registerObserver()" style="text;align=left;verticalAlign=top;spacingLeft=4;spacingRight=4;overflow=hidden;rotatable=0;points=[[0,0.5],[1,0.5]];portConstraint=eastwest;fontColor=#393C56;" parent="bU1tPg2YoFCti1Te3YLf-4" vertex="1">
                    <mxGeometry y="26" width="160" height="26" as="geometry"/>
                </mxCell>
                <mxCell id="bU1tPg2YoFCti1Te3YLf-6" value="notifyObserver()" style="text;align=left;verticalAlign=top;spacingLeft=4;spacingRight=4;overflow=hidden;rotatable=0;points=[[0,0.5],[1,0.5]];portConstraint=eastwest;rounded=0;shadow=0;html=0;fontColor=#393C56;" parent="bU1tPg2YoFCti1Te3YLf-4" vertex="1">
                    <mxGeometry y="52" width="160" height="26" as="geometry"/>
                </mxCell>
                <mxCell id="bU1tPg2YoFCti1Te3YLf-7" value="removeObserver()" style="text;align=left;verticalAlign=top;spacingLeft=4;spacingRight=4;overflow=hidden;rotatable=0;points=[[0,0.5],[1,0.5]];portConstraint=eastwest;rounded=0;shadow=0;html=0;fontColor=#393C56;" parent="bU1tPg2YoFCti1Te3YLf-4" vertex="1">
                    <mxGeometry y="78" width="160" height="26" as="geometry"/>
                </mxCell>
                <mxCell id="bU1tPg2YoFCti1Te3YLf-8" value="" style="line;html=1;strokeWidth=1;align=left;verticalAlign=middle;spacingTop=-1;spacingLeft=3;spacingRight=3;rotatable=0;labelPosition=right;points=[];portConstraint=eastwest;labelBackgroundColor=#F4F1DE;fillColor=#F2CC8F;strokeColor=#E07A5F;fontColor=#393C56;" parent="bU1tPg2YoFCti1Te3YLf-4" vertex="1">
                    <mxGeometry y="104" width="160" height="8" as="geometry"/>
                </mxCell>
                <mxCell id="bU1tPg2YoFCti1Te3YLf-9" value="enterCustomer()" style="text;align=left;verticalAlign=top;spacingLeft=4;spacingRight=4;overflow=hidden;rotatable=0;points=[[0,0.5],[1,0.5]];portConstraint=eastwest;rounded=0;shadow=0;html=0;fontColor=#393C56;" parent="bU1tPg2YoFCti1Te3YLf-4" vertex="1">
                    <mxGeometry y="112" width="160" height="28" as="geometry"/>
                </mxCell>
                <mxCell id="bU1tPg2YoFCti1Te3YLf-14" value="" style="endArrow=block;endSize=10;endFill=0;shadow=0;strokeWidth=1;rounded=0;edgeStyle=elbowEdgeStyle;elbow=vertical;dashed=1;labelBackgroundColor=#F4F1DE;strokeColor=#E07A5F;fontColor=#393C56;" parent="YBCZdcRhZ_f7jCjPwHEH-1" source="bU1tPg2YoFCti1Te3YLf-4" target="bU1tPg2YoFCti1Te3YLf-0" edge="1">
                    <mxGeometry width="160" relative="1" as="geometry">
                        <mxPoint x="260" y="307" as="sourcePoint"/>
                        <mxPoint x="260" y="307" as="targetPoint"/>
                    </mxGeometry>
                </mxCell>
                <mxCell id="bU1tPg2YoFCti1Te3YLf-15" value="&lt;&lt;interface&gt;&gt;&#10;Observer" style="swimlane;fontStyle=0;align=center;verticalAlign=top;childLayout=stackLayout;horizontal=1;startSize=36;horizontalStack=0;resizeParent=1;resizeLast=0;collapsible=1;marginBottom=0;rounded=0;shadow=0;strokeWidth=1;fillColor=#F2CC8F;strokeColor=#E07A5F;fontColor=#393C56;" parent="YBCZdcRhZ_f7jCjPwHEH-1" vertex="1">
                    <mxGeometry x="730" y="224" width="160" height="62" as="geometry">
                        <mxRectangle x="550" y="140" width="160" height="26" as="alternateBounds"/>
                    </mxGeometry>
                </mxCell>
                <mxCell id="bU1tPg2YoFCti1Te3YLf-16" value="update()" style="text;align=left;verticalAlign=top;spacingLeft=4;spacingRight=4;overflow=hidden;rotatable=0;points=[[0,0.5],[1,0.5]];portConstraint=eastwest;fontColor=#393C56;" parent="bU1tPg2YoFCti1Te3YLf-15" vertex="1">
                    <mxGeometry y="36" width="160" height="26" as="geometry"/>
                </mxCell>
                <mxCell id="bU1tPg2YoFCti1Te3YLf-17" value="" style="endArrow=open;shadow=0;strokeWidth=1;rounded=0;endFill=1;edgeStyle=elbowEdgeStyle;elbow=vertical;exitX=1.006;exitY=0.106;exitDx=0;exitDy=0;exitPerimeter=0;labelBackgroundColor=#F4F1DE;strokeColor=#E07A5F;fontColor=#393C56;" parent="YBCZdcRhZ_f7jCjPwHEH-1" source="bU1tPg2YoFCti1Te3YLf-0" target="bU1tPg2YoFCti1Te3YLf-15" edge="1">
                    <mxGeometry x="0.5" y="41" relative="1" as="geometry">
                        <mxPoint x="321" y="244" as="sourcePoint"/>
                        <mxPoint x="480" y="296" as="targetPoint"/>
                        <mxPoint x="-40" y="32" as="offset"/>
                    </mxGeometry>
                </mxCell>
                <mxCell id="bU1tPg2YoFCti1Te3YLf-18" value="observers" style="resizable=0;align=right;verticalAlign=bottom;labelBackgroundColor=none;fontSize=12;fillColor=#F2CC8F;strokeColor=#E07A5F;fontColor=#393C56;" parent="bU1tPg2YoFCti1Te3YLf-17" connectable="0" vertex="1">
                    <mxGeometry x="1" relative="1" as="geometry">
                        <mxPoint x="-10" as="offset"/>
                    </mxGeometry>
                </mxCell>
                <mxCell id="bU1tPg2YoFCti1Te3YLf-19" value="Customer" style="swimlane;fontStyle=0;align=center;verticalAlign=top;childLayout=stackLayout;horizontal=1;startSize=26;horizontalStack=0;resizeParent=1;resizeLast=0;collapsible=1;marginBottom=0;rounded=0;shadow=0;strokeWidth=1;fillColor=#F2CC8F;strokeColor=#E07A5F;fontColor=#393C56;" parent="YBCZdcRhZ_f7jCjPwHEH-1" vertex="1">
                    <mxGeometry x="730" y="464" width="160" height="86" as="geometry">
                        <mxRectangle x="550" y="140" width="160" height="26" as="alternateBounds"/>
                    </mxGeometry>
                </mxCell>
                <mxCell id="bU1tPg2YoFCti1Te3YLf-20" value="update()" style="text;align=left;verticalAlign=top;spacingLeft=4;spacingRight=4;overflow=hidden;rotatable=0;points=[[0,0.5],[1,0.5]];portConstraint=eastwest;fontColor=#393C56;" parent="bU1tPg2YoFCti1Te3YLf-19" vertex="1">
                    <mxGeometry y="26" width="160" height="26" as="geometry"/>
                </mxCell>
                <mxCell id="yV30AqQBoeMvUeNBzkMe-0" value="" style="line;html=1;strokeWidth=1;align=left;verticalAlign=middle;spacingTop=-1;spacingLeft=3;spacingRight=3;rotatable=0;labelPosition=right;points=[];portConstraint=eastwest;labelBackgroundColor=#F4F1DE;fillColor=#F2CC8F;strokeColor=#E07A5F;fontColor=#393C56;" parent="bU1tPg2YoFCti1Te3YLf-19" vertex="1">
                    <mxGeometry y="52" width="160" height="8" as="geometry"/>
                </mxCell>
                <mxCell id="bU1tPg2YoFCti1Te3YLf-21" value="leave()" style="text;align=left;verticalAlign=top;spacingLeft=4;spacingRight=4;overflow=hidden;rotatable=0;points=[[0,0.5],[1,0.5]];portConstraint=eastwest;fontColor=#393C56;" parent="bU1tPg2YoFCti1Te3YLf-19" vertex="1">
                    <mxGeometry y="60" width="160" height="26" as="geometry"/>
                </mxCell>
                <mxCell id="bU1tPg2YoFCti1Te3YLf-22" value="" style="endArrow=classic;html=1;exitX=0.5;exitY=0;exitDx=0;exitDy=0;dashed=1;labelBackgroundColor=#F4F1DE;strokeColor=#E07A5F;fontColor=#393C56;" parent="YBCZdcRhZ_f7jCjPwHEH-1" source="bU1tPg2YoFCti1Te3YLf-19" target="bU1tPg2YoFCti1Te3YLf-16" edge="1">
                    <mxGeometry width="50" height="50" relative="1" as="geometry">
                        <mxPoint x="600" y="534" as="sourcePoint"/>
                        <mxPoint x="640" y="484" as="targetPoint"/>
                    </mxGeometry>
                </mxCell>
                <mxCell id="bU1tPg2YoFCti1Te3YLf-35" value="store" style="endArrow=classic;html=1;exitX=0;exitY=0.25;exitDx=0;exitDy=0;entryX=1.011;entryY=-0.154;entryDx=0;entryDy=0;entryPerimeter=0;labelBackgroundColor=#F4F1DE;strokeColor=#E07A5F;fontColor=#393C56;" parent="YBCZdcRhZ_f7jCjPwHEH-1" source="bU1tPg2YoFCti1Te3YLf-19" target="bU1tPg2YoFCti1Te3YLf-5" edge="1">
                    <mxGeometry x="0.8122" y="-8" width="50" height="50" relative="1" as="geometry">
                        <mxPoint x="605" y="514" as="sourcePoint"/>
                        <mxPoint x="550" y="503" as="targetPoint"/>
                        <mxPoint as="offset"/>
                    </mxGeometry>
                </mxCell>
            </root>
        </mxGraphModel>
    </diagram>
    <diagram id="94dkFkkVl1nu_RTFgs4r" name="op3">
        <mxGraphModel dx="1116" dy="828" grid="1" gridSize="20" guides="1" tooltips="1" connect="1" arrows="1" fold="1" page="1" pageScale="1" pageWidth="1169" pageHeight="827" background="#F4F1DE" math="0" shadow="0">
            <root>
                <mxCell id="nGjl42E726yRRJJ6nhOr-0"/>
                <mxCell id="nGjl42E726yRRJJ6nhOr-1" parent="nGjl42E726yRRJJ6nhOr-0"/>
                <mxCell id="61t4jp_DwjYqJdR4OfT4-0" value="&lt;&lt;interface&gt;&gt;&#10;Subject" style="swimlane;fontStyle=0;align=center;verticalAlign=top;childLayout=stackLayout;horizontal=1;startSize=36;horizontalStack=0;resizeParent=1;resizeLast=0;collapsible=1;marginBottom=0;rounded=0;shadow=0;strokeWidth=1;fillColor=#F2CC8F;strokeColor=#E07A5F;fontColor=#393C56;" parent="nGjl42E726yRRJJ6nhOr-1" vertex="1">
                    <mxGeometry x="265" y="85" width="140" height="114" as="geometry">
                        <mxRectangle x="230" y="140" width="160" height="26" as="alternateBounds"/>
                    </mxGeometry>
                </mxCell>
                <mxCell id="61t4jp_DwjYqJdR4OfT4-1" value="registerObserver()" style="text;align=left;verticalAlign=top;spacingLeft=4;spacingRight=4;overflow=hidden;rotatable=0;points=[[0,0.5],[1,0.5]];portConstraint=eastwest;fontColor=#393C56;" parent="61t4jp_DwjYqJdR4OfT4-0" vertex="1">
                    <mxGeometry y="36" width="140" height="26" as="geometry"/>
                </mxCell>
                <mxCell id="61t4jp_DwjYqJdR4OfT4-2" value="removeObserver()" style="text;align=left;verticalAlign=top;spacingLeft=4;spacingRight=4;overflow=hidden;rotatable=0;points=[[0,0.5],[1,0.5]];portConstraint=eastwest;rounded=0;shadow=0;html=0;fontColor=#393C56;" parent="61t4jp_DwjYqJdR4OfT4-0" vertex="1">
                    <mxGeometry y="62" width="140" height="26" as="geometry"/>
                </mxCell>
                <mxCell id="61t4jp_DwjYqJdR4OfT4-3" value="notifyObserver()" style="text;align=left;verticalAlign=top;spacingLeft=4;spacingRight=4;overflow=hidden;rotatable=0;points=[[0,0.5],[1,0.5]];portConstraint=eastwest;rounded=0;shadow=0;html=0;fontColor=#393C56;" parent="61t4jp_DwjYqJdR4OfT4-0" vertex="1">
                    <mxGeometry y="88" width="140" height="26" as="geometry"/>
                </mxCell>
                <mxCell id="2u996zMzVJoHhH1bRpaP-47" style="edgeStyle=none;rounded=1;orthogonalLoop=1;jettySize=auto;html=1;exitX=0.75;exitY=0;exitDx=0;exitDy=0;dashed=1;fontColor=#393C56;strokeColor=#E07A5F;fillColor=#F2CC8F;" parent="nGjl42E726yRRJJ6nhOr-1" source="61t4jp_DwjYqJdR4OfT4-4" target="61t4jp_DwjYqJdR4OfT4-0" edge="1">
                    <mxGeometry relative="1" as="geometry"/>
                </mxCell>
                <mxCell id="2u996zMzVJoHhH1bRpaP-49" value="keyevent" style="edgeStyle=none;rounded=1;orthogonalLoop=1;jettySize=auto;html=1;entryX=0.5;entryY=0;entryDx=0;entryDy=0;strokeColor=#E07A5F;fillColor=#F2CC8F;labelBackgroundColor=none;fontColor=#393C56;" parent="nGjl42E726yRRJJ6nhOr-1" source="61t4jp_DwjYqJdR4OfT4-4" target="2u996zMzVJoHhH1bRpaP-0" edge="1">
                    <mxGeometry x="0.8092" y="-39" relative="1" as="geometry">
                        <mxPoint as="offset"/>
                    </mxGeometry>
                </mxCell>
                <mxCell id="61t4jp_DwjYqJdR4OfT4-4" value="Keyboard" style="swimlane;fontStyle=0;align=center;verticalAlign=top;childLayout=stackLayout;horizontal=1;startSize=26;horizontalStack=0;resizeParent=1;resizeLast=0;collapsible=1;marginBottom=0;rounded=0;shadow=0;strokeWidth=1;fillColor=#F2CC8F;strokeColor=#E07A5F;fontColor=#393C56;" parent="nGjl42E726yRRJJ6nhOr-1" vertex="1">
                    <mxGeometry x="165" y="325" width="160" height="140" as="geometry">
                        <mxRectangle x="120" y="360" width="160" height="26" as="alternateBounds"/>
                    </mxGeometry>
                </mxCell>
                <mxCell id="61t4jp_DwjYqJdR4OfT4-5" value="registerObserver()" style="text;align=left;verticalAlign=top;spacingLeft=4;spacingRight=4;overflow=hidden;rotatable=0;points=[[0,0.5],[1,0.5]];portConstraint=eastwest;fontColor=#393C56;" parent="61t4jp_DwjYqJdR4OfT4-4" vertex="1">
                    <mxGeometry y="26" width="160" height="26" as="geometry"/>
                </mxCell>
                <mxCell id="61t4jp_DwjYqJdR4OfT4-6" value="notifyObserver()" style="text;align=left;verticalAlign=top;spacingLeft=4;spacingRight=4;overflow=hidden;rotatable=0;points=[[0,0.5],[1,0.5]];portConstraint=eastwest;rounded=0;shadow=0;html=0;fontColor=#393C56;" parent="61t4jp_DwjYqJdR4OfT4-4" vertex="1">
                    <mxGeometry y="52" width="160" height="26" as="geometry"/>
                </mxCell>
                <mxCell id="61t4jp_DwjYqJdR4OfT4-7" value="removeObserver()" style="text;align=left;verticalAlign=top;spacingLeft=4;spacingRight=4;overflow=hidden;rotatable=0;points=[[0,0.5],[1,0.5]];portConstraint=eastwest;rounded=0;shadow=0;html=0;fontColor=#393C56;" parent="61t4jp_DwjYqJdR4OfT4-4" vertex="1">
                    <mxGeometry y="78" width="160" height="26" as="geometry"/>
                </mxCell>
                <mxCell id="61t4jp_DwjYqJdR4OfT4-8" value="" style="line;html=1;strokeWidth=1;align=left;verticalAlign=middle;spacingTop=-1;spacingLeft=3;spacingRight=3;rotatable=0;labelPosition=right;points=[];portConstraint=eastwest;labelBackgroundColor=#F4F1DE;fillColor=#F2CC8F;strokeColor=#E07A5F;fontColor=#393C56;" parent="61t4jp_DwjYqJdR4OfT4-4" vertex="1">
                    <mxGeometry y="104" width="160" height="8" as="geometry"/>
                </mxCell>
                <mxCell id="61t4jp_DwjYqJdR4OfT4-9" value="performKeyDown()" style="text;align=left;verticalAlign=top;spacingLeft=4;spacingRight=4;overflow=hidden;rotatable=0;points=[[0,0.5],[1,0.5]];portConstraint=eastwest;rounded=0;shadow=0;html=0;fontColor=#393C56;" parent="61t4jp_DwjYqJdR4OfT4-4" vertex="1">
                    <mxGeometry y="112" width="160" height="28" as="geometry"/>
                </mxCell>
                <mxCell id="61t4jp_DwjYqJdR4OfT4-12" value="&lt;&lt;interface&gt;&gt;&#10;Observer" style="swimlane;fontStyle=0;align=center;verticalAlign=top;childLayout=stackLayout;horizontal=1;startSize=36;horizontalStack=0;resizeParent=1;resizeLast=0;collapsible=1;marginBottom=0;rounded=0;shadow=0;strokeWidth=1;fillColor=#F2CC8F;strokeColor=#E07A5F;fontColor=#393C56;" parent="nGjl42E726yRRJJ6nhOr-1" vertex="1">
                    <mxGeometry x="765" y="85" width="130" height="62" as="geometry">
                        <mxRectangle x="550" y="140" width="160" height="26" as="alternateBounds"/>
                    </mxGeometry>
                </mxCell>
                <mxCell id="61t4jp_DwjYqJdR4OfT4-13" value="update()" style="text;align=left;verticalAlign=top;spacingLeft=4;spacingRight=4;overflow=hidden;rotatable=0;points=[[0,0.5],[1,0.5]];portConstraint=eastwest;fontColor=#393C56;" parent="61t4jp_DwjYqJdR4OfT4-12" vertex="1">
                    <mxGeometry y="36" width="130" height="26" as="geometry"/>
                </mxCell>
                <mxCell id="61t4jp_DwjYqJdR4OfT4-14" value="" style="endArrow=open;shadow=0;strokeWidth=1;rounded=0;endFill=1;edgeStyle=elbowEdgeStyle;elbow=vertical;exitX=1.006;exitY=0.106;exitDx=0;exitDy=0;exitPerimeter=0;labelBackgroundColor=#F4F1DE;strokeColor=#E07A5F;fontColor=#393C56;" parent="nGjl42E726yRRJJ6nhOr-1" source="61t4jp_DwjYqJdR4OfT4-0" target="61t4jp_DwjYqJdR4OfT4-12" edge="1">
                    <mxGeometry x="0.5" y="41" relative="1" as="geometry">
                        <mxPoint x="296" y="105" as="sourcePoint"/>
                        <mxPoint x="455" y="157" as="targetPoint"/>
                        <mxPoint x="-40" y="32" as="offset"/>
                    </mxGeometry>
                </mxCell>
                <mxCell id="61t4jp_DwjYqJdR4OfT4-15" value="observers" style="resizable=0;align=right;verticalAlign=bottom;labelBackgroundColor=none;fontSize=12;fillColor=#F2CC8F;strokeColor=#E07A5F;fontColor=#393C56;" parent="61t4jp_DwjYqJdR4OfT4-14" connectable="0" vertex="1">
                    <mxGeometry x="1" relative="1" as="geometry">
                        <mxPoint x="-10" as="offset"/>
                    </mxGeometry>
                </mxCell>
                <mxCell id="2u996zMzVJoHhH1bRpaP-45" style="edgeStyle=none;rounded=1;orthogonalLoop=1;jettySize=auto;html=1;exitX=0.75;exitY=0;exitDx=0;exitDy=0;dashed=1;fontColor=#393C56;strokeColor=#E07A5F;fillColor=#F2CC8F;" parent="nGjl42E726yRRJJ6nhOr-1" source="61t4jp_DwjYqJdR4OfT4-24" target="61t4jp_DwjYqJdR4OfT4-12" edge="1">
                    <mxGeometry relative="1" as="geometry"/>
                </mxCell>
                <mxCell id="2u996zMzVJoHhH1bRpaP-50" value="curTool" style="edgeStyle=none;rounded=1;orthogonalLoop=1;jettySize=auto;html=1;labelBackgroundColor=none;fontColor=#393C56;strokeColor=#E07A5F;fillColor=#F2CC8F;" parent="nGjl42E726yRRJJ6nhOr-1" source="61t4jp_DwjYqJdR4OfT4-24" edge="1">
                    <mxGeometry x="0.3548" y="20" relative="1" as="geometry">
                        <mxPoint x="745" y="581" as="targetPoint"/>
                        <mxPoint as="offset"/>
                    </mxGeometry>
                </mxCell>
                <mxCell id="61t4jp_DwjYqJdR4OfT4-24" value="Canvas" style="swimlane;fontStyle=0;align=center;verticalAlign=top;childLayout=stackLayout;horizontal=1;startSize=26;horizontalStack=0;resizeParent=1;resizeLast=0;collapsible=1;marginBottom=0;rounded=0;shadow=0;strokeWidth=1;fillColor=#F2CC8F;strokeColor=#E07A5F;fontColor=#393C56;" parent="nGjl42E726yRRJJ6nhOr-1" vertex="1">
                    <mxGeometry x="665" y="401" width="160" height="118" as="geometry">
                        <mxRectangle x="550" y="140" width="160" height="26" as="alternateBounds"/>
                    </mxGeometry>
                </mxCell>
                <mxCell id="61t4jp_DwjYqJdR4OfT4-25" value="update()" style="text;align=left;verticalAlign=top;spacingLeft=4;spacingRight=4;overflow=hidden;rotatable=0;points=[[0,0.5],[1,0.5]];portConstraint=eastwest;fontColor=#393C56;" parent="61t4jp_DwjYqJdR4OfT4-24" vertex="1">
                    <mxGeometry y="26" width="160" height="26" as="geometry"/>
                </mxCell>
                <mxCell id="61t4jp_DwjYqJdR4OfT4-26" value="" style="line;html=1;strokeWidth=1;align=left;verticalAlign=middle;spacingTop=-1;spacingLeft=3;spacingRight=3;rotatable=0;labelPosition=right;points=[];portConstraint=eastwest;labelBackgroundColor=#F4F1DE;fillColor=#F2CC8F;strokeColor=#E07A5F;fontColor=#393C56;" parent="61t4jp_DwjYqJdR4OfT4-24" vertex="1">
                    <mxGeometry y="52" width="160" height="8" as="geometry"/>
                </mxCell>
                <mxCell id="61t4jp_DwjYqJdR4OfT4-27" value="readPost() {&#10;    // 제목 및 내용 모두 읽음&#10;}" style="text;align=left;verticalAlign=top;spacingLeft=4;spacingRight=4;overflow=hidden;rotatable=0;points=[[0,0.5],[1,0.5]];portConstraint=eastwest;fontColor=#393C56;" parent="61t4jp_DwjYqJdR4OfT4-24" vertex="1">
                    <mxGeometry y="60" width="160" height="58" as="geometry"/>
                </mxCell>
                <mxCell id="2u996zMzVJoHhH1bRpaP-44" style="edgeStyle=none;rounded=1;orthogonalLoop=1;jettySize=auto;html=1;exitX=0.25;exitY=0;exitDx=0;exitDy=0;dashed=1;fontColor=#393C56;strokeColor=#E07A5F;fillColor=#F2CC8F;" parent="nGjl42E726yRRJJ6nhOr-1" source="61t4jp_DwjYqJdR4OfT4-28" target="61t4jp_DwjYqJdR4OfT4-12" edge="1">
                    <mxGeometry relative="1" as="geometry"/>
                </mxCell>
                <mxCell id="61t4jp_DwjYqJdR4OfT4-28" value="CloseButton" style="swimlane;fontStyle=0;align=center;verticalAlign=top;childLayout=stackLayout;horizontal=1;startSize=26;horizontalStack=0;resizeParent=1;resizeLast=0;collapsible=1;marginBottom=0;rounded=0;shadow=0;strokeWidth=1;fillColor=#F2CC8F;strokeColor=#E07A5F;fontColor=#393C56;" parent="nGjl42E726yRRJJ6nhOr-1" vertex="1">
                    <mxGeometry x="845" y="401" width="160" height="118" as="geometry">
                        <mxRectangle x="550" y="140" width="160" height="26" as="alternateBounds"/>
                    </mxGeometry>
                </mxCell>
                <mxCell id="61t4jp_DwjYqJdR4OfT4-29" value="update()" style="text;align=left;verticalAlign=top;spacingLeft=4;spacingRight=4;overflow=hidden;rotatable=0;points=[[0,0.5],[1,0.5]];portConstraint=eastwest;fontColor=#393C56;" parent="61t4jp_DwjYqJdR4OfT4-28" vertex="1">
                    <mxGeometry y="26" width="160" height="26" as="geometry"/>
                </mxCell>
                <mxCell id="61t4jp_DwjYqJdR4OfT4-30" value="" style="line;html=1;strokeWidth=1;align=left;verticalAlign=middle;spacingTop=-1;spacingLeft=3;spacingRight=3;rotatable=0;labelPosition=right;points=[];portConstraint=eastwest;labelBackgroundColor=#F4F1DE;fillColor=#F2CC8F;strokeColor=#E07A5F;fontColor=#393C56;" parent="61t4jp_DwjYqJdR4OfT4-28" vertex="1">
                    <mxGeometry y="52" width="160" height="8" as="geometry"/>
                </mxCell>
                <mxCell id="61t4jp_DwjYqJdR4OfT4-31" value="readPost() {&#10;    // 읽는 척만 하고 안읽음&#10;}" style="text;align=left;verticalAlign=top;spacingLeft=4;spacingRight=4;overflow=hidden;rotatable=0;points=[[0,0.5],[1,0.5]];portConstraint=eastwest;fontColor=#393C56;" parent="61t4jp_DwjYqJdR4OfT4-28" vertex="1">
                    <mxGeometry y="60" width="160" height="58" as="geometry"/>
                </mxCell>
                <mxCell id="2u996zMzVJoHhH1bRpaP-46" style="edgeStyle=none;rounded=1;orthogonalLoop=1;jettySize=auto;html=1;exitX=0.25;exitY=0;exitDx=0;exitDy=0;dashed=1;fontColor=#393C56;strokeColor=#E07A5F;fillColor=#F2CC8F;" parent="nGjl42E726yRRJJ6nhOr-1" source="61t4jp_DwjYqJdR4OfT4-36" target="61t4jp_DwjYqJdR4OfT4-0" edge="1">
                    <mxGeometry relative="1" as="geometry"/>
                </mxCell>
                <mxCell id="2u996zMzVJoHhH1bRpaP-48" value="mouseevent" style="edgeStyle=none;rounded=1;orthogonalLoop=1;jettySize=auto;html=1;entryX=0.5;entryY=0;entryDx=0;entryDy=0;fontColor=#393C56;strokeColor=#E07A5F;fillColor=#F2CC8F;labelBackgroundColor=none;" parent="nGjl42E726yRRJJ6nhOr-1" source="61t4jp_DwjYqJdR4OfT4-36" target="2u996zMzVJoHhH1bRpaP-13" edge="1">
                    <mxGeometry x="0.8092" y="39" relative="1" as="geometry">
                        <mxPoint as="offset"/>
                    </mxGeometry>
                </mxCell>
                <mxCell id="61t4jp_DwjYqJdR4OfT4-36" value="Mouse" style="swimlane;fontStyle=0;align=center;verticalAlign=top;childLayout=stackLayout;horizontal=1;startSize=26;horizontalStack=0;resizeParent=1;resizeLast=0;collapsible=1;marginBottom=0;rounded=0;shadow=0;strokeWidth=1;fillColor=#F2CC8F;strokeColor=#E07A5F;fontColor=#393C56;" parent="nGjl42E726yRRJJ6nhOr-1" vertex="1">
                    <mxGeometry x="345" y="325" width="160" height="140" as="geometry">
                        <mxRectangle x="120" y="360" width="160" height="26" as="alternateBounds"/>
                    </mxGeometry>
                </mxCell>
                <mxCell id="61t4jp_DwjYqJdR4OfT4-37" value="registerObserver()" style="text;align=left;verticalAlign=top;spacingLeft=4;spacingRight=4;overflow=hidden;rotatable=0;points=[[0,0.5],[1,0.5]];portConstraint=eastwest;fontColor=#393C56;" parent="61t4jp_DwjYqJdR4OfT4-36" vertex="1">
                    <mxGeometry y="26" width="160" height="26" as="geometry"/>
                </mxCell>
                <mxCell id="61t4jp_DwjYqJdR4OfT4-38" value="notifyObserver()" style="text;align=left;verticalAlign=top;spacingLeft=4;spacingRight=4;overflow=hidden;rotatable=0;points=[[0,0.5],[1,0.5]];portConstraint=eastwest;rounded=0;shadow=0;html=0;fontColor=#393C56;" parent="61t4jp_DwjYqJdR4OfT4-36" vertex="1">
                    <mxGeometry y="52" width="160" height="26" as="geometry"/>
                </mxCell>
                <mxCell id="61t4jp_DwjYqJdR4OfT4-39" value="removeObserver()" style="text;align=left;verticalAlign=top;spacingLeft=4;spacingRight=4;overflow=hidden;rotatable=0;points=[[0,0.5],[1,0.5]];portConstraint=eastwest;rounded=0;shadow=0;html=0;fontColor=#393C56;" parent="61t4jp_DwjYqJdR4OfT4-36" vertex="1">
                    <mxGeometry y="78" width="160" height="26" as="geometry"/>
                </mxCell>
                <mxCell id="61t4jp_DwjYqJdR4OfT4-40" value="" style="line;html=1;strokeWidth=1;align=left;verticalAlign=middle;spacingTop=-1;spacingLeft=3;spacingRight=3;rotatable=0;labelPosition=right;points=[];portConstraint=eastwest;labelBackgroundColor=#F4F1DE;fillColor=#F2CC8F;strokeColor=#E07A5F;fontColor=#393C56;" parent="61t4jp_DwjYqJdR4OfT4-36" vertex="1">
                    <mxGeometry y="104" width="160" height="8" as="geometry"/>
                </mxCell>
                <mxCell id="61t4jp_DwjYqJdR4OfT4-41" value="performMouseClick()" style="text;align=left;verticalAlign=top;spacingLeft=4;spacingRight=4;overflow=hidden;rotatable=0;points=[[0,0.5],[1,0.5]];portConstraint=eastwest;rounded=0;shadow=0;html=0;fontColor=#393C56;" parent="61t4jp_DwjYqJdR4OfT4-36" vertex="1">
                    <mxGeometry y="112" width="160" height="28" as="geometry"/>
                </mxCell>
                <mxCell id="61t4jp_DwjYqJdR4OfT4-44" value="&lt;&lt;interface&gt;&gt;&#10;Event" style="swimlane;fontStyle=0;align=center;verticalAlign=top;childLayout=stackLayout;horizontal=1;startSize=40;horizontalStack=0;resizeParent=1;resizeLast=0;collapsible=1;marginBottom=0;rounded=0;shadow=0;strokeWidth=1;fillColor=#F2CC8F;strokeColor=#E07A5F;fontColor=#393C56;" parent="nGjl42E726yRRJJ6nhOr-1" vertex="1">
                    <mxGeometry x="285" y="601" width="100" height="66" as="geometry">
                        <mxRectangle x="550" y="140" width="160" height="26" as="alternateBounds"/>
                    </mxGeometry>
                </mxCell>
                <mxCell id="2u996zMzVJoHhH1bRpaP-0" value="KeyboardEvent" style="swimlane;fontStyle=0;align=center;verticalAlign=top;childLayout=stackLayout;horizontal=1;startSize=26;horizontalStack=0;resizeParent=1;resizeLast=0;collapsible=1;marginBottom=0;rounded=0;shadow=0;strokeWidth=1;fillColor=#F2CC8F;strokeColor=#E07A5F;fontColor=#393C56;" parent="nGjl42E726yRRJJ6nhOr-1" vertex="1">
                    <mxGeometry x="205" y="701" width="120" height="40" as="geometry">
                        <mxRectangle x="120" y="360" width="160" height="26" as="alternateBounds"/>
                    </mxGeometry>
                </mxCell>
                <mxCell id="2u996zMzVJoHhH1bRpaP-13" value="MouseEvent" style="swimlane;fontStyle=0;align=center;verticalAlign=top;childLayout=stackLayout;horizontal=1;startSize=26;horizontalStack=0;resizeParent=1;resizeLast=0;collapsible=1;marginBottom=0;rounded=0;shadow=0;strokeWidth=1;fillColor=#F2CC8F;strokeColor=#E07A5F;fontColor=#393C56;" parent="nGjl42E726yRRJJ6nhOr-1" vertex="1">
                    <mxGeometry x="345" y="701" width="120" height="40" as="geometry">
                        <mxRectangle x="120" y="360" width="160" height="26" as="alternateBounds"/>
                    </mxGeometry>
                </mxCell>
                <mxCell id="2u996zMzVJoHhH1bRpaP-17" value="" style="endArrow=block;endSize=10;endFill=0;shadow=0;strokeWidth=1;rounded=0;elbow=vertical;dashed=1;labelBackgroundColor=#F4F1DE;strokeColor=#E07A5F;fontColor=#393C56;entryX=0.25;entryY=1;entryDx=0;entryDy=0;exitX=0.75;exitY=0;exitDx=0;exitDy=0;" parent="nGjl42E726yRRJJ6nhOr-1" source="2u996zMzVJoHhH1bRpaP-0" target="61t4jp_DwjYqJdR4OfT4-44" edge="1">
                    <mxGeometry width="160" relative="1" as="geometry">
                        <mxPoint x="220.181185770751" y="647" as="sourcePoint"/>
                        <mxPoint x="265.0033201581027" y="521" as="targetPoint"/>
                    </mxGeometry>
                </mxCell>
                <mxCell id="2u996zMzVJoHhH1bRpaP-19" value="" style="endArrow=block;endSize=10;endFill=0;shadow=0;strokeWidth=1;rounded=0;elbow=vertical;dashed=1;labelBackgroundColor=#F4F1DE;strokeColor=#E07A5F;fontColor=#393C56;entryX=0.75;entryY=1;entryDx=0;entryDy=0;exitX=0.25;exitY=0;exitDx=0;exitDy=0;" parent="nGjl42E726yRRJJ6nhOr-1" source="2u996zMzVJoHhH1bRpaP-13" target="61t4jp_DwjYqJdR4OfT4-44" edge="1">
                    <mxGeometry width="160" relative="1" as="geometry">
                        <mxPoint x="315" y="721" as="sourcePoint"/>
                        <mxPoint x="330" y="687" as="targetPoint"/>
                    </mxGeometry>
                </mxCell>
                <mxCell id="2u996zMzVJoHhH1bRpaP-23" value="&lt;&lt;interface&gt;&gt;&#10;Tool" style="swimlane;fontStyle=0;align=center;verticalAlign=top;childLayout=stackLayout;horizontal=1;startSize=36;horizontalStack=0;resizeParent=1;resizeLast=0;collapsible=1;marginBottom=0;rounded=0;shadow=0;strokeWidth=1;fillColor=#F2CC8F;strokeColor=#E07A5F;fontColor=#393C56;" parent="nGjl42E726yRRJJ6nhOr-1" vertex="1">
                    <mxGeometry x="675" y="585" width="140" height="62" as="geometry">
                        <mxRectangle x="550" y="140" width="160" height="26" as="alternateBounds"/>
                    </mxGeometry>
                </mxCell>
                <mxCell id="2u996zMzVJoHhH1bRpaP-24" value="draw()" style="text;align=left;verticalAlign=top;spacingLeft=4;spacingRight=4;overflow=hidden;rotatable=0;points=[[0,0.5],[1,0.5]];portConstraint=eastwest;fontColor=#393C56;" parent="2u996zMzVJoHhH1bRpaP-23" vertex="1">
                    <mxGeometry y="36" width="140" height="26" as="geometry"/>
                </mxCell>
                <mxCell id="2u996zMzVJoHhH1bRpaP-41" style="rounded=1;orthogonalLoop=1;jettySize=auto;html=1;exitX=0.5;exitY=0;exitDx=0;exitDy=0;fontColor=#393C56;strokeColor=#E07A5F;fillColor=#F2CC8F;dashed=1;" parent="nGjl42E726yRRJJ6nhOr-1" source="2u996zMzVJoHhH1bRpaP-31" target="2u996zMzVJoHhH1bRpaP-23" edge="1">
                    <mxGeometry relative="1" as="geometry"/>
                </mxCell>
                <mxCell id="2u996zMzVJoHhH1bRpaP-31" value="Pencil" style="swimlane;fontStyle=0;align=center;verticalAlign=top;childLayout=stackLayout;horizontal=1;startSize=26;horizontalStack=0;resizeParent=1;resizeLast=0;collapsible=1;marginBottom=0;rounded=0;shadow=0;strokeWidth=1;fillColor=#F2CC8F;strokeColor=#E07A5F;fontColor=#393C56;" parent="nGjl42E726yRRJJ6nhOr-1" vertex="1">
                    <mxGeometry x="655" y="681" width="80" height="60" as="geometry">
                        <mxRectangle x="550" y="140" width="160" height="26" as="alternateBounds"/>
                    </mxGeometry>
                </mxCell>
                <mxCell id="2u996zMzVJoHhH1bRpaP-32" value="draw()" style="text;align=left;verticalAlign=top;spacingLeft=4;spacingRight=4;overflow=hidden;rotatable=0;points=[[0,0.5],[1,0.5]];portConstraint=eastwest;fontColor=#393C56;" parent="2u996zMzVJoHhH1bRpaP-31" vertex="1">
                    <mxGeometry y="26" width="80" height="26" as="geometry"/>
                </mxCell>
                <mxCell id="2u996zMzVJoHhH1bRpaP-42" style="rounded=1;orthogonalLoop=1;jettySize=auto;html=1;exitX=0.5;exitY=0;exitDx=0;exitDy=0;fontColor=#393C56;strokeColor=#E07A5F;fillColor=#F2CC8F;dashed=1;" parent="nGjl42E726yRRJJ6nhOr-1" source="2u996zMzVJoHhH1bRpaP-35" target="2u996zMzVJoHhH1bRpaP-23" edge="1">
                    <mxGeometry relative="1" as="geometry"/>
                </mxCell>
                <mxCell id="2u996zMzVJoHhH1bRpaP-35" value="Eraser" style="swimlane;fontStyle=0;align=center;verticalAlign=top;childLayout=stackLayout;horizontal=1;startSize=26;horizontalStack=0;resizeParent=1;resizeLast=0;collapsible=1;marginBottom=0;rounded=0;shadow=0;strokeWidth=1;fillColor=#F2CC8F;strokeColor=#E07A5F;fontColor=#393C56;" parent="nGjl42E726yRRJJ6nhOr-1" vertex="1">
                    <mxGeometry x="755" y="681" width="80" height="60" as="geometry">
                        <mxRectangle x="550" y="140" width="160" height="26" as="alternateBounds"/>
                    </mxGeometry>
                </mxCell>
                <mxCell id="2u996zMzVJoHhH1bRpaP-36" value="draw()" style="text;align=left;verticalAlign=top;spacingLeft=4;spacingRight=4;overflow=hidden;rotatable=0;points=[[0,0.5],[1,0.5]];portConstraint=eastwest;fontColor=#393C56;" parent="2u996zMzVJoHhH1bRpaP-35" vertex="1">
                    <mxGeometry y="26" width="80" height="26" as="geometry"/>
                </mxCell>
            </root>
        </mxGraphModel>
    </diagram>
    <diagram id="Ez5j_bUW_ehpVT6Yby-t" name="fp1">
        <mxGraphModel dx="1116" dy="828" grid="1" gridSize="20" guides="1" tooltips="1" connect="1" arrows="1" fold="1" page="1" pageScale="1" pageWidth="1169" pageHeight="827" background="#F4F1DE" math="0" shadow="0">
            <root>
                <mxCell id="8lMKrFXGyIMlkiRkqDY_-0"/>
                <mxCell id="8lMKrFXGyIMlkiRkqDY_-1" parent="8lMKrFXGyIMlkiRkqDY_-0"/>
                <mxCell id="yzOZgyJObl-xt4EgYeZS-0" value="Pizza" style="swimlane;fontStyle=0;align=center;verticalAlign=top;childLayout=stackLayout;horizontal=1;startSize=20;horizontalStack=0;resizeParent=1;resizeLast=0;collapsible=1;marginBottom=0;shadow=0;strokeWidth=1;fillColor=#F2CC8F;strokeColor=#E07A5F;fontColor=#393C56;labelBackgroundColor=none;swimlaneLine=1;rounded=0;glass=0;swimlaneFillColor=none;" vertex="1" parent="8lMKrFXGyIMlkiRkqDY_-1">
                    <mxGeometry x="223.5" y="360" width="160" height="46" as="geometry">
                        <mxRectangle x="230" y="140" width="160" height="26" as="alternateBounds"/>
                    </mxGeometry>
                </mxCell>
                <mxCell id="yzOZgyJObl-xt4EgYeZS-1" value="showPrice()" style="text;align=left;verticalAlign=top;spacingLeft=4;spacingRight=4;overflow=hidden;rotatable=0;points=[[0,0.5],[1,0.5]];portConstraint=eastwest;fontColor=#393C56;" vertex="1" parent="yzOZgyJObl-xt4EgYeZS-0">
                    <mxGeometry y="20" width="160" height="26" as="geometry"/>
                </mxCell>
                <mxCell id="yzOZgyJObl-xt4EgYeZS-4" value="MrSoftPotatoPizza" style="swimlane;fontStyle=0;align=center;verticalAlign=top;childLayout=stackLayout;horizontal=1;startSize=26;horizontalStack=0;resizeParent=1;resizeLast=0;collapsible=1;marginBottom=0;shadow=0;strokeWidth=1;fillColor=#F2CC8F;strokeColor=#E07A5F;fontColor=#393C56;" vertex="1" parent="8lMKrFXGyIMlkiRkqDY_-1">
                    <mxGeometry x="93.5" y="504" width="160" height="36" as="geometry">
                        <mxRectangle x="120" y="360" width="160" height="26" as="alternateBounds"/>
                    </mxGeometry>
                </mxCell>
                <mxCell id="yzOZgyJObl-xt4EgYeZS-11" value="" style="endArrow=block;endFill=0;shadow=0;strokeWidth=1;elbow=vertical;strokeColor=#E07A5F;fontColor=#393C56;labelBackgroundColor=#F4F1DE;exitX=0.75;exitY=0;exitDx=0;exitDy=0;entryX=0.25;entryY=1;entryDx=0;entryDy=0;" edge="1" parent="8lMKrFXGyIMlkiRkqDY_-1" source="yzOZgyJObl-xt4EgYeZS-4" target="yzOZgyJObl-xt4EgYeZS-0">
                    <mxGeometry width="160" relative="1" as="geometry">
                        <mxPoint x="203.5" y="347" as="sourcePoint"/>
                        <mxPoint x="203.5" y="347" as="targetPoint"/>
                    </mxGeometry>
                </mxCell>
                <mxCell id="yzOZgyJObl-xt4EgYeZS-12" value="PizzaStore" style="swimlane;fontStyle=0;align=center;verticalAlign=top;childLayout=stackLayout;horizontal=1;startSize=20;horizontalStack=0;resizeParent=1;resizeLast=0;collapsible=1;marginBottom=0;shadow=0;strokeWidth=1;fillColor=#F2CC8F;strokeColor=#E07A5F;fontColor=#393C56;" vertex="1" parent="8lMKrFXGyIMlkiRkqDY_-1">
                    <mxGeometry x="772.5" y="385" width="160" height="72" as="geometry">
                        <mxRectangle x="550" y="140" width="160" height="26" as="alternateBounds"/>
                    </mxGeometry>
                </mxCell>
                <mxCell id="DmMQa753csJLEl80LVjX-9" value="orderPizza()" style="text;align=left;verticalAlign=top;spacingLeft=4;spacingRight=4;overflow=hidden;rotatable=0;points=[[0,0.5],[1,0.5]];portConstraint=eastwest;fontColor=#393C56;" vertex="1" parent="yzOZgyJObl-xt4EgYeZS-12">
                    <mxGeometry y="20" width="160" height="26" as="geometry"/>
                </mxCell>
                <mxCell id="DmMQa753csJLEl80LVjX-10" value="createPizza()" style="text;align=left;verticalAlign=top;spacingLeft=4;spacingRight=4;overflow=hidden;rotatable=0;points=[[0,0.5],[1,0.5]];portConstraint=eastwest;fontColor=#393C56;" vertex="1" parent="yzOZgyJObl-xt4EgYeZS-12">
                    <mxGeometry y="46" width="160" height="26" as="geometry"/>
                </mxCell>
                <mxCell id="DmMQa753csJLEl80LVjX-14" style="edgeStyle=none;rounded=1;orthogonalLoop=1;jettySize=auto;html=1;exitX=0.75;exitY=0;exitDx=0;exitDy=0;fontFamily=Comic Sans MS;fontSize=48;fontColor=#393C56;strokeColor=#E07A5F;fillColor=#F2CC8F;" edge="1" parent="8lMKrFXGyIMlkiRkqDY_-1" source="yzOZgyJObl-xt4EgYeZS-20" target="yzOZgyJObl-xt4EgYeZS-12">
                    <mxGeometry relative="1" as="geometry"/>
                </mxCell>
                <mxCell id="yzOZgyJObl-xt4EgYeZS-20" value="MrPizzaStore" style="swimlane;fontStyle=0;align=center;verticalAlign=top;childLayout=stackLayout;horizontal=1;startSize=26;horizontalStack=0;resizeParent=1;resizeLast=0;collapsible=1;marginBottom=0;shadow=0;strokeWidth=1;fillColor=#F2CC8F;strokeColor=#E07A5F;fontColor=#393C56;" vertex="1" parent="8lMKrFXGyIMlkiRkqDY_-1">
                    <mxGeometry x="672.5" y="521" width="160" height="64" as="geometry">
                        <mxRectangle x="550" y="140" width="160" height="26" as="alternateBounds"/>
                    </mxGeometry>
                </mxCell>
                <mxCell id="yzOZgyJObl-xt4EgYeZS-21" value="createPizza()" style="text;align=left;verticalAlign=top;spacingLeft=4;spacingRight=4;overflow=hidden;rotatable=0;points=[[0,0.5],[1,0.5]];portConstraint=eastwest;fontColor=#393C56;" vertex="1" parent="yzOZgyJObl-xt4EgYeZS-20">
                    <mxGeometry y="26" width="160" height="26" as="geometry"/>
                </mxCell>
                <mxCell id="DmMQa753csJLEl80LVjX-15" style="edgeStyle=none;rounded=1;orthogonalLoop=1;jettySize=auto;html=1;exitX=0.25;exitY=0;exitDx=0;exitDy=0;fontFamily=Comic Sans MS;fontSize=48;fontColor=#393C56;strokeColor=#E07A5F;fillColor=#F2CC8F;" edge="1" parent="8lMKrFXGyIMlkiRkqDY_-1" source="yzOZgyJObl-xt4EgYeZS-28" target="yzOZgyJObl-xt4EgYeZS-12">
                    <mxGeometry relative="1" as="geometry"/>
                </mxCell>
                <mxCell id="yzOZgyJObl-xt4EgYeZS-28" value="DominoPizzaStore" style="swimlane;fontStyle=0;align=center;verticalAlign=top;childLayout=stackLayout;horizontal=1;startSize=26;horizontalStack=0;resizeParent=1;resizeLast=0;collapsible=1;marginBottom=0;shadow=0;strokeWidth=1;fillColor=#F2CC8F;strokeColor=#E07A5F;fontColor=#393C56;" vertex="1" parent="8lMKrFXGyIMlkiRkqDY_-1">
                    <mxGeometry x="872.5" y="521" width="160" height="64" as="geometry">
                        <mxRectangle x="550" y="140" width="160" height="26" as="alternateBounds"/>
                    </mxGeometry>
                </mxCell>
                <mxCell id="yzOZgyJObl-xt4EgYeZS-29" value="createPizza()" style="text;align=left;verticalAlign=top;spacingLeft=4;spacingRight=4;overflow=hidden;rotatable=0;points=[[0,0.5],[1,0.5]];portConstraint=eastwest;fontColor=#393C56;" vertex="1" parent="yzOZgyJObl-xt4EgYeZS-28">
                    <mxGeometry y="26" width="160" height="26" as="geometry"/>
                </mxCell>
                <mxCell id="Z2Qn15cRZAcr_faB4rhQ-0" value="The Product Classes" style="text;html=1;strokeColor=none;fillColor=none;align=center;verticalAlign=middle;whiteSpace=wrap;rounded=0;fontColor=#393C56;fontSize=48;sketch=0;shadow=0;labelBackgroundColor=none;labelBorderColor=none;fontFamily=Comic Sans MS;" vertex="1" parent="8lMKrFXGyIMlkiRkqDY_-1">
                    <mxGeometry x="71" y="189" width="465" height="100" as="geometry"/>
                </mxCell>
                <mxCell id="DmMQa753csJLEl80LVjX-0" value="The Creator Classes" style="text;html=1;strokeColor=none;fillColor=none;align=center;verticalAlign=middle;whiteSpace=wrap;rounded=0;fontColor=#393C56;fontSize=48;sketch=0;shadow=0;labelBackgroundColor=none;labelBorderColor=none;fontFamily=Comic Sans MS;" vertex="1" parent="8lMKrFXGyIMlkiRkqDY_-1">
                    <mxGeometry x="632.5" y="189" width="465" height="100" as="geometry"/>
                </mxCell>
                <mxCell id="DmMQa753csJLEl80LVjX-2" value="MrShrimpGoldPizza" style="swimlane;fontStyle=0;align=center;verticalAlign=top;childLayout=stackLayout;horizontal=1;startSize=26;horizontalStack=0;resizeParent=1;resizeLast=0;collapsible=1;marginBottom=0;shadow=0;strokeWidth=1;fillColor=#F2CC8F;strokeColor=#E07A5F;fontColor=#393C56;" vertex="1" parent="8lMKrFXGyIMlkiRkqDY_-1">
                    <mxGeometry x="113.5" y="540" width="160" height="36" as="geometry">
                        <mxRectangle x="120" y="360" width="160" height="26" as="alternateBounds"/>
                    </mxGeometry>
                </mxCell>
                <mxCell id="DmMQa753csJLEl80LVjX-3" value="MrPepperoniPizza" style="swimlane;fontStyle=0;align=center;verticalAlign=top;childLayout=stackLayout;horizontal=1;startSize=26;horizontalStack=0;resizeParent=1;resizeLast=0;collapsible=1;marginBottom=0;shadow=0;strokeWidth=1;fillColor=#F2CC8F;strokeColor=#E07A5F;fontColor=#393C56;" vertex="1" parent="8lMKrFXGyIMlkiRkqDY_-1">
                    <mxGeometry x="133.5" y="576" width="160" height="36" as="geometry">
                        <mxRectangle x="120" y="360" width="160" height="26" as="alternateBounds"/>
                    </mxGeometry>
                </mxCell>
                <mxCell id="DmMQa753csJLEl80LVjX-4" value="DominoGoldPotatoPizza" style="swimlane;fontStyle=0;align=center;verticalAlign=top;childLayout=stackLayout;horizontal=1;startSize=26;horizontalStack=0;resizeParent=1;resizeLast=0;collapsible=1;marginBottom=0;shadow=0;strokeWidth=1;fillColor=#F2CC8F;strokeColor=#E07A5F;fontColor=#393C56;" vertex="1" parent="8lMKrFXGyIMlkiRkqDY_-1">
                    <mxGeometry x="336" y="504" width="177.5" height="36" as="geometry">
                        <mxRectangle x="120" y="360" width="160" height="26" as="alternateBounds"/>
                    </mxGeometry>
                </mxCell>
                <mxCell id="DmMQa753csJLEl80LVjX-5" value="DominoHawaiianShrimpPizza" style="swimlane;fontStyle=0;align=center;verticalAlign=top;childLayout=stackLayout;horizontal=1;startSize=26;horizontalStack=0;resizeParent=1;resizeLast=0;collapsible=1;marginBottom=0;shadow=0;strokeWidth=1;fillColor=#F2CC8F;strokeColor=#E07A5F;fontColor=#393C56;" vertex="1" parent="8lMKrFXGyIMlkiRkqDY_-1">
                    <mxGeometry x="356" y="540" width="177.5" height="36" as="geometry">
                        <mxRectangle x="120" y="360" width="160" height="26" as="alternateBounds"/>
                    </mxGeometry>
                </mxCell>
                <mxCell id="DmMQa753csJLEl80LVjX-6" value="DominoPotatoiPizza" style="swimlane;fontStyle=0;align=center;verticalAlign=top;childLayout=stackLayout;horizontal=1;startSize=26;horizontalStack=0;resizeParent=1;resizeLast=0;collapsible=1;marginBottom=0;shadow=0;strokeWidth=1;fillColor=#F2CC8F;strokeColor=#E07A5F;fontColor=#393C56;" vertex="1" parent="8lMKrFXGyIMlkiRkqDY_-1">
                    <mxGeometry x="376" y="576" width="177.5" height="36" as="geometry">
                        <mxRectangle x="120" y="360" width="160" height="26" as="alternateBounds"/>
                    </mxGeometry>
                </mxCell>
                <mxCell id="DmMQa753csJLEl80LVjX-7" value="" style="endArrow=block;endFill=0;shadow=0;strokeWidth=1;elbow=vertical;strokeColor=#E07A5F;fontColor=#393C56;labelBackgroundColor=#F4F1DE;entryX=0.75;entryY=1;entryDx=0;entryDy=0;exitX=0.25;exitY=0;exitDx=0;exitDy=0;" edge="1" parent="8lMKrFXGyIMlkiRkqDY_-1" source="DmMQa753csJLEl80LVjX-4" target="yzOZgyJObl-xt4EgYeZS-0">
                    <mxGeometry width="160" relative="1" as="geometry">
                        <mxPoint x="206.21739130434798" y="524" as="sourcePoint"/>
                        <mxPoint x="296.6521739130435" y="396" as="targetPoint"/>
                    </mxGeometry>
                </mxCell>
            </root>
        </mxGraphModel>
    </diagram>
</mxfile>